<svg id="Layer_1" data-name="Layer 1" xmlns="http://www.w3.org/2000/svg" viewBox="0 0 326.62 79.68"><defs><style>.cls-1,.cls-3{fill:#00875a;}.cls-1{fill-rule:evenodd;}.cls-2{isolation:isolate;}</style></defs><title>Pragis_logo_full_V2_4</title><g id="Pragis-Logo"><polyline id="Fill-1" class="cls-1" points="84.04 7.27 68.16 11.99 9.55 72.23 55.6 72.23 55.6 79.68 63.7 79.68 77.99 75.28 70.52 75.28 70.52 48.81 58.79 60.48 67.75 60.48 67.66 67.42 42.14 67.42 78.03 31.1 77.99 72.23 81.36 72.23 94.96 67.42 80.81 67.42 80.81 60.48 86.59 60.48 79.81 21.93 35.26 67.42 25.66 67.42 84.04 7.27"/><path id="Fill-2" class="cls-1" d="M7.6,65.26,0,58l3.55-3.72C5.69,52.15,7.6,52,9.19,53.51s1.78,3.58-.36,5.76L7.6,60.55l2.32,2.27Zm-.68-7.49A1.23,1.23,0,0,0,7,55.91c-.73-.72-1.59,0-2.14.55l-.64.73,1.68,1.67Z" transform="translate(0 0)"/><path id="Fill-3" class="cls-1" d="M17.84,49.37l2.63,2.55-2.4,2.5L10.52,47.1,14,43.52c2.46-2.54,3.87-2.68,5.32-1.31A2.58,2.58,0,0,1,20,45.29c1.09-.54,1.73-.81,3.28.73.95.95,1.36,1.45,1.72,1.13h.1l-2.51,2.5a5,5,0,0,1-1.46-1.09c-.95-1-1.45-1.09-2.63.09Zm-1.59-1.63.91-1c.68-.77.91-1.36.36-1.86s-1.14-.32-1.73.18L14.7,46.29Z" transform="translate(0 0)"/><path id="Fill-4" class="cls-1" d="M29.17,42.57l-5-10.08L26.67,30l10.18,4.58-2.4,2.5-1.24-.68-2.45,2.49.77,1.23Zm-1.46-9,1.92,3.35,1.54-1.54Z" transform="translate(0 0)"/><path id="Fill-5" class="cls-1" d="M47.83,23.59l-1.55,1.55-.78-.6a4.06,4.06,0,0,1-1.31,3.14c-1.92,2-4.83,2.49-7.47-.05-2.5-2.36-2.64-5.4-.32-7.9,1.78-1.81,4.19-2.36,6.37-.86l-2.32,2.41a1.63,1.63,0,0,0-2.18.36c-1,.95-.55,2.18.86,3.5,1,1,2.33,1.67,3.6.36a1.85,1.85,0,0,0,.36-2.05l-1.09,1L40.36,23l3.28-3.41,4.19,4" transform="translate(0 0)"/><polyline id="Fill-6" class="cls-1" points="52.73 18.69 45.14 11.42 47.55 8.93 55.15 16.23 52.73 18.69"/><path id="Fill-7" class="cls-1" d="M57.33,3.07c-.27-.13-.59-.23-.77,0a1.21,1.21,0,0,0-.82.41c-.5.55-.59,1-.32,1.18C56.56,5.7,60.06.75,62.84,3.39c1.73,1.68,1.18,4-.91,6-1.87,2.05-4.37,2.19-5.69,1L58.42,8a1.26,1.26,0,0,0,1,.14,1.56,1.56,0,0,0,.87-.5c.59-.59.81-1.23.45-1.59-1.19-1.14-4.55,4.08-7.46,1.23-1.64-1.55-1-3.73.77-5.54,2-2.13,4-2,5.5-1L57.33,3.07" transform="translate(0 0)"/><path id="Fill-8" class="cls-1" d="M90.62,78.91a3.52,3.52,0,1,1,3.51-3.53A3.53,3.53,0,0,1,90.62,78.91Zm0,.75a4.27,4.27,0,1,0-4.29-4.28A4.26,4.26,0,0,0,90.62,79.66Zm-.25-4a1,1,0,0,1,.73.2,2,2,0,0,1,.28,1.07c0,.29.11.61.17.9h1a6.63,6.63,0,0,1-.29-1.46c-.08-.54-.16-.85-.86-1v0a1.16,1.16,0,0,0,1-1.17c0-1.13-1-1.38-1.88-1.38H88.92v5h.79V75.67Zm-.66-.79V73.6h.94c.63,0,.8.19.8.57s-.17.69-.91.71Z" transform="translate(0 0)"/></g><g id="PRAGIS-a.s." class="cls-2"><g class="cls-2"><path class="cls-3" d="M117.8,56V27.2H130l1.13,0a9,9,0,0,1,1.27.13,8.91,8.91,0,0,1,4.23,1.7A7.74,7.74,0,0,1,139,32.33a11.83,11.83,0,0,1,.78,4.39,11.63,11.63,0,0,1-.79,4.39,7.84,7.84,0,0,1-2.44,3.27,8.88,8.88,0,0,1-4.21,1.7c-.37.05-.8.09-1.28.12s-.85,0-1.12,0h-6.72V56Zm5.44-14.84h6.48c.28,0,.59,0,.92,0a5,5,0,0,0,.92-.16,3.32,3.32,0,0,0,1.7-1,4,4,0,0,0,.83-1.58,6,6,0,0,0,0-3.3,4,4,0,0,0-.83-1.58,3.32,3.32,0,0,0-1.7-1,5,5,0,0,0-.92-.16c-.33,0-.64,0-.92,0h-6.48Z" transform="translate(0 0)"/><path class="cls-3" d="M143.8,56V27.2H156l1.13,0a9,9,0,0,1,1.27.13,8.91,8.91,0,0,1,4.23,1.7A7.74,7.74,0,0,1,165,32.33a11.83,11.83,0,0,1,.78,4.39,10.52,10.52,0,0,1-1.8,6.19,8,8,0,0,1-5.64,3.17l-2.4.16h-6.72V56Zm5.44-14.84h6.48c.28,0,.59,0,.92,0a5,5,0,0,0,.92-.16,3.32,3.32,0,0,0,1.7-1,4,4,0,0,0,.83-1.58,6,6,0,0,0,0-3.3,4,4,0,0,0-.83-1.58,3.32,3.32,0,0,0-1.7-1,5,5,0,0,0-.92-.16c-.33,0-.64,0-.92,0h-6.48ZM160,56l-5.68-11.72L160,43.2,166.2,56Z" transform="translate(0 0)"/><path class="cls-3" d="M168.6,56l8.8-28.8h8.12l8.8,28.8h-5.6l-7.84-25.4h1L174.2,56Zm5.28-6V44.92h15.2V50Z" transform="translate(0 0)"/><path class="cls-3" d="M208.32,56.6a13.94,13.94,0,0,1-5.18-1,12.59,12.59,0,0,1-4.35-2.87,13.56,13.56,0,0,1-3-4.7,17.67,17.67,0,0,1-1.09-6.46,16.73,16.73,0,0,1,1.83-8.13,12.76,12.76,0,0,1,4.92-5.11,13.62,13.62,0,0,1,6.85-1.76q5.56,0,8.74,2.58a12.67,12.67,0,0,1,4.26,7.3l-5.56.8a8.44,8.44,0,0,0-2.55-4,6.78,6.78,0,0,0-4.53-1.53,7.79,7.79,0,0,0-4.56,1.18,7.42,7.42,0,0,0-2.73,3.46,13.79,13.79,0,0,0-.91,5.24,13.5,13.5,0,0,0,.91,5.2,7.41,7.41,0,0,0,2.73,3.42,8.28,8.28,0,0,0,4.56,1.26,7.71,7.71,0,0,0,3.37-.64,6.23,6.23,0,0,0,2.55-2.14A9.46,9.46,0,0,0,216.08,45h-4.56v-4.2h10.36a7.2,7.2,0,0,1,.06.92c0,.44,0,.69,0,.76a15.55,15.55,0,0,1-1.68,7.34,12.44,12.44,0,0,1-4.74,5A13.9,13.9,0,0,1,208.32,56.6Z" transform="translate(0 0)"/><path class="cls-3" d="M226.36,56V27.2h5.44V56Z" transform="translate(0 0)"/><path class="cls-3" d="M248.68,56.6a14.21,14.21,0,0,1-5.77-1.13,10.71,10.71,0,0,1-4.22-3.24,10.53,10.53,0,0,1-2.09-5l5.68-.84a6.34,6.34,0,0,0,2.48,3.82A7.21,7.21,0,0,0,249,51.52a8.18,8.18,0,0,0,2.6-.42,5.1,5.1,0,0,0,2.07-1.24,2.77,2.77,0,0,0,.81-2,2.7,2.7,0,0,0-.13-.85,2.36,2.36,0,0,0-.43-.77,3.05,3.05,0,0,0-.85-.68,6.85,6.85,0,0,0-1.39-.58l-7.48-2.2c-.56-.16-1.21-.39-2-.68a8.33,8.33,0,0,1-2.15-1.26,6.52,6.52,0,0,1-1.73-2.17,7.47,7.47,0,0,1-.69-3.41,7.76,7.76,0,0,1,1.46-4.82,8.69,8.69,0,0,1,3.9-2.86,14.65,14.65,0,0,1,5.4-.92,14.28,14.28,0,0,1,5.32,1,10.12,10.12,0,0,1,3.92,2.85A11.5,11.5,0,0,1,260,35.08l-5.88,1a5.22,5.22,0,0,0-1.18-2.36,5.63,5.63,0,0,0-2.05-1.46,7,7,0,0,0-2.49-.54,6.58,6.58,0,0,0-2.41.35,4.59,4.59,0,0,0-1.84,1.13,2.46,2.46,0,0,0-.71,1.76,2.07,2.07,0,0,0,.58,1.53,4.35,4.35,0,0,0,1.46.95,14.61,14.61,0,0,0,1.8.6l5,1.36c.75.2,1.57.46,2.48.79a11.21,11.21,0,0,1,2.61,1.36,6.91,6.91,0,0,1,2.06,2.29,7.21,7.21,0,0,1,.81,3.6,8.09,8.09,0,0,1-1,4.05,8.52,8.52,0,0,1-2.61,2.86A12,12,0,0,1,253,56,16.4,16.4,0,0,1,248.68,56.6Z" transform="translate(0 0)"/></g><g class="cls-2"><path class="cls-3" d="M278.88,56.6a8.71,8.71,0,0,1-4.15-.88,6,6,0,0,1-2.47-2.33,6.28,6.28,0,0,1-.82-3.15,5.77,5.77,0,0,1,.77-3.08,5.89,5.89,0,0,1,2.06-2A10.24,10.24,0,0,1,277.12,44q1.78-.41,3.84-.69t3.93-.51c1.25-.15,2.26-.27,3.05-.38l-.84.5c0-2.33-.38-4.07-1.31-5.21S283.23,36,280.9,36a6.92,6.92,0,0,0-4,1.11,5.92,5.92,0,0,0-2.23,3.43l-2.36-.66a7.56,7.56,0,0,1,3-4.52A9.76,9.76,0,0,1,281,33.8,10,10,0,0,1,286,35a6.21,6.21,0,0,1,2.83,3.26,7.44,7.44,0,0,1,.46,2,22.34,22.34,0,0,1,.12,2.31V56h-2.1V50.32l.78.2a8.28,8.28,0,0,1-3.42,4.5A10.43,10.43,0,0,1,278.88,56.6Zm.12-2.12a8.84,8.84,0,0,0,3.86-.79,7,7,0,0,0,2.69-2.22,7.5,7.5,0,0,0,1.31-3.37,14.1,14.1,0,0,0,.22-2.34c0-.84,0-1.46,0-1.86l1,.64c-.87.11-1.9.22-3.11.34s-2.44.27-3.69.44a27.75,27.75,0,0,0-3.4.66,9.29,9.29,0,0,0-1.89.75,4.57,4.57,0,0,0-1.58,1.35,3.59,3.59,0,0,0-.63,2.18,4.31,4.31,0,0,0,.49,2,3.91,3.91,0,0,0,1.63,1.62A6.27,6.27,0,0,0,279,54.48Z" transform="translate(0 0)"/><path class="cls-3" d="M293.48,56V53.1h2.9V56Z" transform="translate(0 0)"/><path class="cls-3" d="M312,56.56A11.15,11.15,0,0,1,305.87,55a6.66,6.66,0,0,1-3-4.4l2.36-.4a5,5,0,0,0,2.36,3.06,8.57,8.57,0,0,0,4.56,1.14,7.13,7.13,0,0,0,4.26-1.14A3.65,3.65,0,0,0,318,50.12a3,3,0,0,0-.49-1.77,4.37,4.37,0,0,0-1.93-1.27,41.63,41.63,0,0,0-4.28-1.36,28.74,28.74,0,0,1-4.69-1.6,5.72,5.72,0,0,1-2.38-1.82,4.35,4.35,0,0,1-.69-2.5,5,5,0,0,1,1-3.13,6.71,6.71,0,0,1,2.85-2.11,10.9,10.9,0,0,1,4.23-.76,11.2,11.2,0,0,1,4.32.79,7.9,7.9,0,0,1,3.1,2.2,5.83,5.83,0,0,1,1.36,3.27L318,40.5a4.81,4.81,0,0,0-2.1-3.29,7.64,7.64,0,0,0-4.4-1.23,7.06,7.06,0,0,0-4.08,1,3.13,3.13,0,0,0-1.58,2.71,2.47,2.47,0,0,0,.55,1.63,4.81,4.81,0,0,0,1.95,1.23,33.2,33.2,0,0,0,4,1.2,27.24,27.24,0,0,1,4.87,1.64,5.8,5.8,0,0,1,2.47,2,5.08,5.08,0,0,1,.72,2.79,5.6,5.6,0,0,1-2.23,4.71A9.86,9.86,0,0,1,312,56.56Z" transform="translate(0 0)"/><path class="cls-3" d="M323.72,56V53.1h2.9V56Z" transform="translate(0 0)"/></g></g></svg>